<?xml version="1.0" encoding="utf-8"?>
<!-- Generator: Adobe Illustrator 24.0.2, SVG Export Plug-In . SVG Version: 6.00 Build 0)  -->
<svg version="1.1" id="Layer_1" xmlns="http://www.w3.org/2000/svg" xmlns:xlink="http://www.w3.org/1999/xlink" x="0px" y="0px"
	 viewBox="0 0 150 150" enable-background="new 0 0 150 150" xml:space="preserve">
<linearGradient id="SVGID_1_" gradientUnits="userSpaceOnUse" x1="41.5201" y1="48.9054" x2="104.3566" y2="111.742">
	<stop  offset="0" style="stop-color:#DE9585"/>
	<stop  offset="1" style="stop-color:#B9716A"/>
</linearGradient>
<path fill="url(#SVGID_1_)" d="M92.37,59.24c3.55,0,6.44-2.89,6.44-6.44v-2.6c0-3.55-2.89-6.44-6.44-6.44s-6.44,2.89-6.44,6.44v2.6
	C85.93,56.35,88.82,59.24,92.37,59.24z M88.42,50.2c0-2.18,1.77-3.95,3.95-3.95c2.18,0,3.95,1.77,3.95,3.95v2.6
	c0,2.18-1.77,3.95-3.95,3.95c-2.18,0-3.95-1.77-3.95-3.95V50.2z M47.98,72.88h14.76v1.72c0,0.69,0.56,1.25,1.25,1.25h22.04
	c0.69,0,1.25-0.56,1.25-1.25v-1.72h14.74c0.69,0,1.25-0.56,1.25-1.25v-5.85c0-3.73-2.92-6.84-6.64-7.08c-0.03,0-0.07,0-0.1,0
	c-0.59,0-0.91,0.39-1.12,0.64c-0.72,0.88-1.79,1.39-2.93,1.39c-0.87,0-1.72-0.3-2.4-0.86c-0.24-0.2-0.46-0.43-0.65-0.68
	c-0.23-0.32-0.61-0.51-1.03-0.51c0,0,0,0,0,0c-1.13,0.03-2.24,0.33-3.23,0.87c-1.38-1.49-3.31-2.4-5.4-2.53
	c-0.6,0-0.92,0.39-1.15,0.67c-0.86,1.05-2.13,1.65-3.49,1.65c-1.03,0-2.05-0.36-2.85-1.02c-0.29-0.24-0.55-0.51-0.77-0.81
	c-0.23-0.32-0.61-0.51-1.03-0.51c0,0,0,0,0,0c-2.08,0.05-4.02,0.9-5.47,2.39c-0.05,0.05-0.1,0.11-0.15,0.16
	c-0.91-0.5-1.94-0.8-2.97-0.87c-0.03,0-0.07,0-0.1,0c-0.59,0-0.91,0.39-1.12,0.64c-0.72,0.88-1.79,1.39-2.93,1.39
	c-0.87,0-1.72-0.3-2.4-0.86c-0.24-0.2-0.46-0.43-0.65-0.68c-0.23-0.32-0.61-0.51-1.03-0.51c0,0,0,0,0,0
	c-3.88,0.1-6.91,3.21-6.91,7.09v5.84C46.74,72.32,47.3,72.88,47.98,72.88z M87.88,61.24c1.19,1.27,2.85,1.99,4.59,1.99
	c1.53,0,3-0.56,4.15-1.57c0.14-0.13,0.28-0.26,0.41-0.39c2.17,0.41,3.74,2.29,3.74,4.52v4.6H87.28v-5.43c0-1.14-0.25-2.27-0.72-3.3
	C86.97,61.45,87.42,61.31,87.88,61.24z M65.24,64.95c0.02-2.73,2.03-5.01,4.71-5.38c1.32,1.45,3.2,2.28,5.17,2.28
	c1.68,0,3.3-0.6,4.57-1.7c0.2-0.17,0.39-0.36,0.57-0.55c2.58,0.45,4.51,2.72,4.51,5.35v8.4H65.24V64.95z M49.23,65.79
	c0.01-2.27,1.68-4.2,3.91-4.55c1.19,1.27,2.85,1.99,4.59,1.99c1.53,0,3-0.56,4.15-1.57c0.14-0.12,0.28-0.26,0.41-0.39
	c0.41,0.08,0.8,0.21,1.17,0.39c-0.47,1.03-0.72,2.16-0.71,3.29v5.43H49.23V65.79z M57.63,59.24c3.55,0,6.44-2.89,6.44-6.44v-2.6
	c0-3.55-2.89-6.44-6.44-6.44c-3.55,0-6.44,2.89-6.44,6.44v2.6C51.19,56.35,54.08,59.24,57.63,59.24z M53.68,50.2
	c0-2.18,1.77-3.95,3.95-3.95c2.18,0,3.95,1.77,3.95,3.95v2.6c0,2.18-1.77,3.95-3.95,3.95c-2.18,0-3.95-1.77-3.95-3.95V50.2z
	 M75.01,57.27c0,0,0.03,0,0.03,0c3.92-0.02,7.13-3.23,7.15-7.15v-2.97C82.18,43.21,78.95,40,74.98,40
	c-3.92,0.02-7.13,3.22-7.15,7.15v2.97C67.85,54.06,71.07,57.27,75.01,57.27z M70.32,47.15c0.01-2.57,2.12-4.66,4.69-4.66v-0.35
	l0.03,0.35c2.56,0.01,4.65,2.11,4.66,4.66v2.97c-0.01,2.57-2.12,4.66-4.71,4.66c-2.56-0.01-4.65-2.11-4.66-4.66V47.15z
	 M109.82,83.23c-1.09-1.82-3.09-2.95-5.22-2.95c-1,0-2,0.25-2.89,0.73l-0.11,0.06c-1.04-1.14-2.52-1.81-4.02-1.81
	c-0.73,0-1.42,0.16-2.07,0.49l-0.64,0.34c-1.18-0.93-2.65-1.44-4.17-1.44c-1.18,0-2.34,0.31-3.35,0.89l-4.45,2.42h-5.93
	c-1.24,0-2.49-0.29-3.61-0.83l-0.83-0.4c-1.97-0.96-4.18-1.47-6.37-1.47c-3.15,0-6.27,1.05-8.78,2.95
	c-0.03,0.02-0.06,0.04-0.08,0.06l-2,1.78c-0.63,0.56-1.37,0.99-2.16,1.28l-1.03-3.39c-0.16-0.53-0.64-0.88-1.19-0.88h-9.67
	c-0.69,0-1.25,0.56-1.25,1.25c0,0.05,0,0.1,0.01,0.15l3.22,26.44c0.08,0.62,0.61,1.1,1.24,1.1h14.51c0.69,0,1.25-0.56,1.25-1.25
	c0-0.12-0.02-0.25-0.05-0.36l-1.83-6l5.7-3.6c0.48-0.26,1.02-0.4,1.56-0.4c0.27,0,0.53,0.03,0.79,0.1c0.01,0,0.07,0.02,0.08,0.02
	l12.08,2.22c0.93,0.17,1.87,0.25,2.81,0.25c2.43,0,4.87-0.57,7.06-1.64c0.05-0.03,0.1-0.06,0.15-0.09l20.89-14.34
	C110,84.53,110.16,83.79,109.82,83.23z M96.67,81.96c0.27-0.14,0.57-0.2,0.9-0.2c0.57,0,1.17,0.21,1.69,0.58l-7.58,4.09
	c-0.2-0.48-0.45-0.94-0.75-1.37L96.67,81.96z M88.59,81.72c0.64-0.37,1.38-0.57,2.12-0.57c0.56,0,1.11,0.11,1.62,0.32l-3.25,1.75
	c-0.52-0.36-1.09-0.64-1.68-0.85L88.59,81.72z M45.57,107.51l-2.92-23.94H50l7.3,23.94H45.57z M87.26,97.12
	c-1.83,0.89-3.86,1.36-5.89,1.36c-0.79,0-1.59-0.07-2.37-0.21l-12.03-2.21c-0.45-0.11-0.91-0.17-1.37-0.17
	c-0.98,0-1.94,0.25-2.85,0.77l-5.16,3.26l-3.72-12.18c1.13-0.39,2.19-1.01,3.09-1.81l1.95-1.74c2.08-1.56,4.66-2.42,7.26-2.42
	c1.82,0,3.64,0.42,5.28,1.22l0.83,0.4c1.46,0.7,3.08,1.07,4.7,1.08h8.03c2.12,0,3.96,1.41,4.54,3.41l-5.36-0.24
	c-0.53-0.02-1.05-0.04-1.58-0.04c-1.61,0-3.23,0.11-4.82,0.33c-0.68,0.1-1.15,0.74-1.05,1.42c0.09,0.61,0.62,1.06,1.23,1.06
	c0.05,0,0.11,0,0.16-0.01c1.48-0.2,2.98-0.31,4.47-0.31c0.49,0,0.98,0.01,1.47,0.03l6.91,0.31c0.69,0,1.25-0.56,1.25-1.25
	c0-0.08,0-0.15,0-0.23l0.75-0.39l9.93-5.35c0.52-0.28,1.11-0.43,1.71-0.43c0.85,0,1.67,0.3,2.31,0.84L87.26,97.12z"/>
</svg>
