<?xml version="1.0" encoding="utf-8"?>
<!-- Generator: Adobe Illustrator 24.0.2, SVG Export Plug-In . SVG Version: 6.00 Build 0)  -->
<svg version="1.1" id="Layer_1" xmlns="http://www.w3.org/2000/svg" xmlns:xlink="http://www.w3.org/1999/xlink" x="0px" y="0px"
	 viewBox="0 0 150 150" enable-background="new 0 0 150 150" xml:space="preserve">
<linearGradient id="SVGID_1_" gradientUnits="userSpaceOnUse" x1="48.2979" y1="48.2979" x2="100.6539" y2="100.6539">
	<stop  offset="0" style="stop-color:#DE9585"/>
	<stop  offset="1" style="stop-color:#B9716A"/>
</linearGradient>
<path fill="url(#SVGID_1_)" d="M51.72,75.02c0-0.88,0.71-1.59,1.59-1.59h20.12V53.31c0-0.88,0.71-1.59,1.59-1.59
	c0.88,0,1.59,0.71,1.59,1.59v20.12h20.12c0.88,0,1.59,0.71,1.59,1.59c0,0.88-0.71,1.59-1.59,1.59H76.6v20.12
	c0,0.88-0.71,1.59-1.59,1.59c-0.88,0-1.59-0.71-1.59-1.59V76.6H53.31C52.43,76.6,51.72,75.89,51.72,75.02z M40.47,72.63h2.39
	c0.21,0,0.38-0.16,0.4-0.36c0.22-2.56,0.75-5.1,1.58-7.53c0.07-0.19-0.03-0.41-0.22-0.49l-2.2-0.97c-0.05-0.02-0.11-0.03-0.16-0.03
	s-0.11,0.01-0.16,0.03c-0.1,0.04-0.18,0.13-0.22,0.23c-0.97,2.79-1.58,5.71-1.82,8.69c-0.01,0.11,0.03,0.22,0.1,0.3
	C40.26,72.59,40.36,72.63,40.47,72.63z M53.98,50.6c0.08,0.08,0.18,0.12,0.28,0.12c0.09,0,0.18-0.03,0.26-0.09
	c1.97-1.66,4.13-3.07,6.43-4.21c0.18-0.09,0.27-0.31,0.19-0.5l-0.87-2.24c-0.04-0.1-0.12-0.18-0.23-0.23
	c-0.05-0.02-0.1-0.03-0.15-0.03c-0.06,0-0.12,0.01-0.17,0.04c-2.65,1.29-5.15,2.92-7.43,4.86c-0.08,0.07-0.14,0.18-0.14,0.29
	c0,0.11,0.04,0.22,0.12,0.3L53.98,50.6z M77.83,40.08c-0.01,0-0.02,0-0.03,0c-0.1,0-0.2,0.04-0.27,0.11
	c-0.08,0.08-0.13,0.18-0.13,0.29v2.39c0,0.21,0.16,0.38,0.36,0.4c16.32,1.4,28.84,14.81,29.13,31.27c0.03,0.16,0.05,0.32,0.05,0.49
	c0,0.16-0.02,0.33-0.06,0.56c-0.3,17.27-14.6,31.32-31.87,31.32c-16.41,0-30.35-12.8-31.76-29.13c-0.02-0.21-0.19-0.36-0.4-0.36
	h-2.39c-0.11,0-0.22,0.05-0.29,0.13c-0.08,0.08-0.11,0.19-0.1,0.3c1.44,18.08,16.78,32.25,34.94,32.25
	c19.33,0,35.06-15.73,35.06-35.06C110.08,56.86,95.91,41.51,77.83,40.08z M44.35,58.92l2.2,0.97c0.05,0.02,0.11,0.03,0.16,0.03
	c0.14,0,0.28-0.08,0.35-0.21c1.01-1.83,2.21-3.58,3.57-5.2c0.13-0.16,0.12-0.39-0.02-0.54l-1.7-1.7c-0.07-0.07-0.18-0.12-0.28-0.12
	c-0.01,0-0.01,0-0.02,0c-0.11,0-0.21,0.06-0.29,0.14c-1.61,1.89-3.01,3.93-4.16,6.07c-0.05,0.1-0.06,0.21-0.03,0.32
	C44.17,58.79,44.24,58.87,44.35,58.92z M65.58,44.18c0.06,0.16,0.21,0.25,0.37,0.25c0.04,0,0.07-0.01,0.11-0.02
	c2.01-0.59,4.1-0.98,6.2-1.16c0.21-0.02,0.36-0.19,0.36-0.4v-2.39c0-0.11-0.05-0.22-0.13-0.29c-0.07-0.07-0.17-0.11-0.27-0.11
	c-0.01,0-0.02,0-0.03,0c-2.46,0.19-4.9,0.65-7.23,1.35c-0.11,0.03-0.19,0.11-0.24,0.21c-0.05,0.1-0.05,0.21-0.01,0.32L65.58,44.18z"
	/>
</svg>
