<?xml version="1.0" encoding="utf-8"?>
<!-- Generator: Adobe Illustrator 24.0.2, SVG Export Plug-In . SVG Version: 6.00 Build 0)  -->
<svg version="1.1" id="Layer_1" xmlns="http://www.w3.org/2000/svg" xmlns:xlink="http://www.w3.org/1999/xlink" x="0px" y="0px"
	 viewBox="0 0 150 150" enable-background="new 0 0 150 150" xml:space="preserve">
<linearGradient id="SVGID_1_" gradientUnits="userSpaceOnUse" x1="43.8802" y1="43.9921" x2="105.193" y2="105.3049">
	<stop  offset="0" style="stop-color:#DE9585"/>
	<stop  offset="1" style="stop-color:#B9716A"/>
</linearGradient>
<path fill="url(#SVGID_1_)" d="M45.67,68.07v4.53c0,0.22-0.18,0.4-0.4,0.4H43.4c-0.22,0-0.4-0.18-0.4-0.4v-4.53
	c0-0.22,0.18-0.4,0.4-0.4h1.87C45.49,67.67,45.67,67.85,45.67,68.07z M50.6,67.67h-1.87c-0.22,0-0.4,0.18-0.4,0.4v4.53
	c0,0.22,0.18,0.4,0.4,0.4h1.87c0.22,0,0.4-0.18,0.4-0.4v-4.53C51,67.85,50.82,67.67,50.6,67.67z M104.33,69v8
	c0,0.57-0.37,1.08-0.91,1.26l-7.09,2.36V97c0,2.94-2.39,5.33-5.33,5.33s-5.33-2.39-5.33-5.33v-0.97l-28.74-11.5l3.28,13.11
	l1.34,1.34c0.61,0.61,0.93,1.42,0.93,2.27c-0.01,0.85-0.34,1.66-0.95,2.26c-0.43,0.42-0.96,0.71-1.55,0.85l-10.05,1.94
	c-0.09,0.02-0.17,0.03-0.25,0.03c-0.62,0-1.15-0.42-1.3-1.03l-5.16-21.94C38.37,82.22,35,77.96,35,73c0-5.88,4.79-10.67,10.67-10.67
	h9.07l30.93-12.37V49c0-2.94,2.39-5.33,5.33-5.33s5.33,2.39,5.33,5.33v16.37l7.09,2.36C103.97,67.92,104.33,68.43,104.33,69z
	 M45.67,81h8V65h-8c-4.41,0-8,3.59-8,8S41.26,81,45.67,81z M53.96,83.67h-7.94l4.65,19.78l8.73-1.69c0.09-0.02,0.18-0.07,0.25-0.14
	c0.1-0.1,0.16-0.23,0.16-0.38c0-0.14-0.05-0.28-0.15-0.38l-1.59-1.59c-0.17-0.17-0.29-0.38-0.35-0.62L53.96,83.67z M85.67,52.84
	L56.33,64.57v16.86l29.33,11.73V52.84z M93.67,49c0-1.47-1.2-2.67-2.67-2.67s-2.67,1.2-2.67,2.67v48c0,1.47,1.2,2.67,2.67,2.67
	s2.67-1.2,2.67-2.67V49z M101.67,69.96l-5.33-1.78v-0.4l0,0.4l0,0v9.63l5.33-1.78V69.96z M107.48,61.8
	c0.07,0.12,0.21,0.19,0.34,0.19c0.07,0,0.14-0.02,0.21-0.06l5.98-3.59c0.19-0.11,0.25-0.36,0.14-0.55l-0.96-1.6
	c-0.05-0.09-0.14-0.16-0.25-0.18c-0.03-0.01-0.06-0.01-0.1-0.01c-0.07,0-0.14,0.02-0.21,0.06l-5.98,3.59
	c-0.09,0.05-0.16,0.14-0.18,0.25c-0.03,0.1-0.01,0.21,0.04,0.3L107.48,61.8z M114.02,87.65l-5.98-3.59
	c-0.06-0.04-0.14-0.06-0.21-0.06c-0.14,0-0.27,0.07-0.34,0.19l-0.96,1.6c-0.05,0.09-0.07,0.2-0.04,0.3c0.03,0.1,0.09,0.19,0.18,0.25
	l5.98,3.59c0.06,0.04,0.14,0.06,0.21,0.06c0.14,0,0.27-0.07,0.34-0.19l0.96-1.6c0.05-0.09,0.07-0.2,0.04-0.3
	C114.18,87.79,114.11,87.71,114.02,87.65z M114.6,71.67h-7.2c-0.22,0-0.4,0.18-0.4,0.4v1.87c0,0.22,0.18,0.4,0.4,0.4h7.2
	c0.22,0,0.4-0.18,0.4-0.4v-1.87C115,71.85,114.82,71.67,114.6,71.67z"/>
</svg>
