<?xml version="1.0" encoding="utf-8"?>
<!-- Generator: Adobe Illustrator 24.0.2, SVG Export Plug-In . SVG Version: 6.00 Build 0)  -->
<svg version="1.1" id="Layer_1" xmlns="http://www.w3.org/2000/svg" xmlns:xlink="http://www.w3.org/1999/xlink" x="0px" y="0px"
	 viewBox="0 0 150 150" enable-background="new 0 0 150 150" xml:space="preserve">
<linearGradient id="SVGID_1_" gradientUnits="userSpaceOnUse" x1="46.469" y1="50.5523" x2="103.6969" y2="107.7803">
	<stop  offset="0" style="stop-color:#DE9585"/>
	<stop  offset="1" style="stop-color:#B9716A"/>
</linearGradient>
<path fill="url(#SVGID_1_)" d="M106.5,54H91.33v-4.67c0-3.22-2.61-5.83-5.83-5.83h-21c-3.22,0-5.83,2.61-5.83,5.83V54H43.5
	c-1.93,0-3.5,1.57-3.5,3.5v25.97c0.01,1.48,0.94,2.8,2.33,3.29V103c0,1.93,1.57,3.5,3.5,3.5h58.33c1.93,0,3.5-1.57,3.5-3.5V86.76
	c1.39-0.5,2.33-1.81,2.33-3.29V57.5C110,55.57,108.43,54,106.5,54z M61,49.33c0-1.93,1.57-3.5,3.5-3.5h21c1.93,0,3.5,1.57,3.5,3.5
	V54h-2.33v-4.67c0-0.64-0.52-1.17-1.17-1.17h-21c-0.64,0-1.17,0.52-1.17,1.17V54H61V49.33z M84.33,50.5V54H65.67v-3.5H84.33z
	 M105.33,103c0,0.64-0.52,1.17-1.17,1.17H45.83c-0.64,0-1.17-0.52-1.17-1.17V87.16l25.67,3.54v2.96c0,1.93,1.57,3.5,3.5,3.5h2.33
	c1.93,0,3.5-1.57,3.5-3.5V90.7l25.67-3.54V103z M72.67,93.67v-7c0-0.64,0.52-1.17,1.17-1.17h2.33c0.64,0,1.17,0.52,1.17,1.17v7
	c0,0.64-0.52,1.17-1.17,1.17h-2.33C73.19,94.83,72.67,94.31,72.67,93.67z M107.67,83.47c0,0.58-0.43,1.07-1,1.16l-0.32,0.04
	l-26.67,3.68v-1.68c0-1.93-1.57-3.5-3.5-3.5h-2.33c-1.93,0-3.5,1.57-3.5,3.5v1.68l-27-3.72c-0.58-0.08-1-0.57-1-1.16V57.5
	c0-0.64,0.52-1.17,1.17-1.17h63c0.64,0,1.17,0.52,1.17,1.17V83.47z"/>
</svg>
