<?xml version="1.0" encoding="utf-8"?>
<!-- Generator: Adobe Illustrator 24.0.2, SVG Export Plug-In . SVG Version: 6.00 Build 0)  -->
<svg version="1.1" id="Layer_1" xmlns="http://www.w3.org/2000/svg" xmlns:xlink="http://www.w3.org/1999/xlink" x="0px" y="0px"
	 viewBox="0 0 691.31 360" enable-background="new 0 0 691.31 360" xml:space="preserve">
<g>
	<radialGradient id="SVGID_1_" cx="343.8658" cy="13.1489" r="194.3811" gradientUnits="userSpaceOnUse">
		<stop  offset="0" style="stop-color:#FEE6D2"/>
		<stop  offset="0.1524" style="stop-color:#FADEC9"/>
		<stop  offset="0.365" style="stop-color:#F0CAB5"/>
		<stop  offset="0.6128" style="stop-color:#E3AD98"/>
		<stop  offset="0.8853" style="stop-color:#D38976"/>
		<stop  offset="1" style="stop-color:#CC7967"/>
	</radialGradient>
	<path fill="url(#SVGID_1_)" d="M279.88,93.54c-0.02-0.47,0.34-0.86,0.81-0.9c20.9-1.39,36.09-5.74,45.15-12.92
		c7.31-5.79,10.89-13.49,10.94-23.55c-0.05-10.05-3.63-17.76-10.94-23.55c-9.06-7.18-24.25-11.53-45.15-12.92
		c-0.47-0.03-0.83-0.43-0.81-0.9c0.02-0.47,0.4-0.84,0.87-0.84c16.44,0,37.24,0.75,52.31,6.61c15.25,5.93,25.84,14.81,25.84,31.83
		c0,17.02-10.59,25.43-25.84,31.36c-6.37,2.48-13.77,4.04-21.43,5.02c26.16,2.46,31.37,13.36,35.65,22.33
		c3.64,7.63,6.52,13.66,20.42,13.66c0.48,0,0.87,0.39,0.87,0.87s-0.39,0.87-0.87,0.87c-38.92,0-45.59-13.4-50.95-24.17
		c-3.43-6.89-6.14-12.33-16.87-12.33c-0.15,0-0.28-0.05-0.4-0.11c-6.49,0.39-12.88,0.49-18.72,0.49
		C280.28,94.38,279.9,94.01,279.88,93.54z M402.64,192.05c17.69-8.88,26.29-23.67,26.29-45.23c0-11.13-2.39-20.69-7.12-28.41
		c-4.34-7.09-10.79-12.86-19.17-17.16c-14.12-7.24-33.54-10.61-61.09-10.61c-0.23,0-0.42,0.18-0.43,0.42
		c-0.01,0.23,0.16,0.45,0.4,0.45c46.6,0,64.75,32.07,64.75,54.63s-3.09,55.32-64.75,55.32c-0.23,0-0.41,0.22-0.4,0.45
		c0.01,0.23,0.2,0.42,0.43,0.42C369.27,202.32,388.69,199.05,402.64,192.05z"/>
	<g>
		<path fill="#2E3133" d="M345.4,266.38h-9.41v27.79h0.79v-9.53h8.62c3.41,0,6.09-0.8,8.02-2.4c1.93-1.6,2.9-3.84,2.9-6.73
			c0-2.88-0.97-5.13-2.9-6.73C351.49,267.18,348.81,266.38,345.4,266.38z M355.52,275.51c0,2.67-0.87,4.74-2.6,6.19
			c-1.73,1.46-4.22,2.18-7.44,2.18h-8.69v-16.75h8.69c3.23,0,5.71,0.73,7.44,2.18S355.52,272.84,355.52,275.51z"/>
		<path fill="#2E3133" d="M399.56,281.09c1.19-1.5,1.79-3.36,1.79-5.58c0-2.88-0.97-5.13-2.9-6.73c-1.93-1.6-4.61-2.4-8.02-2.4
			h-9.41v27.79h0.79v-9.53h8.62c1.24,0,2.33-0.09,3.26-0.28l7.07,9.81h0.99l-7.23-10C396.69,283.61,398.37,282.58,399.56,281.09z
			 M397.96,281.7c-1.73,1.46-4.22,2.18-7.44,2.18h-8.69v-16.75h8.69c3.23,0,5.71,0.73,7.44,2.18c1.73,1.46,2.6,3.52,2.6,6.19
			C400.56,278.18,399.69,280.25,397.96,281.7z"/>
		<path fill="#2E3133" d="M565.37,240.56c-0.53,0.53-1.41,0.93-2.65,1.18l-3.77,0.83v1.4h1.29h16.32h1.29v-1.4l-4.66-0.96
			c-1.19-0.21-2.06-0.6-2.62-1.15c-0.55-0.55-0.83-1.34-0.83-2.36v-27.54l31.12,34.49h1.08v-0.23l0.21,0.23h1.08V206.9
			c0-1.1,0.28-1.92,0.83-2.46c0.55-0.53,1.42-0.92,2.62-1.18l3.76-0.83v-1.4h-1.29h-16.32h-1.29v1.4l4.66,0.96
			c1.19,0.21,2.06,0.6,2.62,1.15c0.55,0.55,0.83,1.34,0.83,2.36v22.31l-25.57-28.18h-1.29h-12.11h-1.29v1.4l3.25,0.7
			c1.06,0.21,1.83,0.44,2.3,0.67c0.47,0.24,0.79,0.57,0.96,1.02c0.17,0.45,0.25,1.14,0.25,2.07v31.2
			C566.17,239.21,565.9,240.03,565.37,240.56z"/>
		<path fill="#2E3133" d="M501.37,240.82c-0.53,0.4-1.24,0.71-2.14,0.92l-3.7,0.83v1.4h1.29h15.43h1.29v-1.4l-5.42-0.96
			c-1.32-0.26-1.98-0.81-1.98-1.66c0-0.21,0.06-0.45,0.19-0.7l4.08-9.7h13.45l3.51,8.81c0.21,0.64,0.32,1.11,0.32,1.4
			c0,1.02-0.92,1.72-2.74,2.11l-3.25,0.7v1.4h1.29h20.98h1.29v-1.4l-3.25-0.7c-1.06-0.21-1.83-0.46-2.3-0.73
			c-0.47-0.28-0.81-0.69-1.02-1.24l-16.72-40.45h-0.83c0,0.22-0.06,0.45-0.17,0.71l-0.29-0.71h-0.83c0,0.47-0.25,1.02-0.77,1.66
			c-0.51,0.64-1.23,1.18-2.17,1.63c-0.94,0.45-2.02,0.69-3.25,0.73l1.98,4.85l-13.02,30.88
			C502.32,239.87,501.9,240.41,501.37,240.82z M517.34,213.19l5.69,14.26h-11.73L517.34,213.19z"/>
		<path fill="#2E3133" d="M309.1,281.09c1.19-1.5,1.79-3.36,1.79-5.58c0-2.88-0.97-5.13-2.9-6.73c-1.93-1.6-4.61-2.4-8.02-2.4h-9.41
			v27.79h0.79v-9.53h8.62c1.24,0,2.33-0.09,3.26-0.28l7.07,9.81h0.99l-7.23-10C306.23,283.61,307.91,282.58,309.1,281.09z
			 M307.49,281.7c-1.73,1.46-4.22,2.18-7.44,2.18h-8.69v-16.75h8.69c3.23,0,5.71,0.73,7.44,2.18s2.6,3.52,2.6,6.19
			C310.09,278.18,309.22,280.25,307.49,281.7z"/>
		<path fill="#2E3133" d="M448.06,240.18c-0.17,0.45-0.49,0.79-0.96,1.02c-0.47,0.23-1.21,0.46-2.23,0.67l-3.32,0.7v1.4h1.29h36.04
			h1.29c0-3.19,0.53-7.02,1.6-11.49h-1.29h-0.11h-1.29l-2.68,3.83c-1.28,1.83-2.72,3.21-4.34,4.15c-1.62,0.94-3.53,1.4-5.74,1.4
			h-3.43c-1.4,0-2.43-0.18-3.06-0.54c-0.64-0.36-1.03-0.89-1.18-1.6c-0.15-0.7-0.22-1.8-0.22-3.29v-14.1h7.07
			c2,0,3.46,0.39,4.37,1.18c0.91,0.79,1.5,1.97,1.75,3.54l0.57,3.06h1.29h0.11h1.29v-17.67h-1.29h-0.11h-1.29l-0.51,2.94
			c-0.25,1.62-0.85,2.83-1.79,3.64c-0.94,0.81-2.45,1.21-4.53,1.21h-6.94v-17.1h7.32c2.68,0,5,0.85,6.95,2.55
			c1.96,1.7,3.51,3.91,4.66,6.64h1.29h0.11h1.29c-0.09-0.43-0.27-1.46-0.54-3.09c-0.28-1.64-0.41-3.2-0.41-4.69
			c0-1.32,0.11-2.49,0.32-3.51h-1.29h-35.27h-1.29v1.4l3.32,0.7c1.02,0.21,1.76,0.44,2.23,0.67c0.47,0.24,0.79,0.57,0.96,1.02
			c0.17,0.45,0.25,1.14,0.25,2.07v31.2C448.32,239.04,448.23,239.73,448.06,240.18z"/>
		<rect x="436.22" y="266.38" fill="#2E3133" width="0.79" height="27.79"/>
		<path fill="#2E3133" d="M578.94,291.81c-1.47,1.15-3.65,1.73-6.53,1.73c-1.88,0-3.65-0.35-5.32-1.05
			c-1.67-0.7-2.95-1.58-3.85-2.64l-0.56,0.52c0.95,1.16,2.32,2.11,4.09,2.84s3.67,1.09,5.68,1.09c2.12,0,3.88-0.31,5.3-0.93
			c1.42-0.62,2.47-1.46,3.16-2.52c0.69-1.06,1.03-2.22,1.03-3.49c0-1.59-0.41-2.85-1.23-3.79c-0.82-0.94-1.83-1.64-3.02-2.1
			c-1.19-0.46-2.79-0.95-4.8-1.45c-1.93-0.48-3.47-0.93-4.61-1.35c-1.14-0.42-2.09-1.06-2.86-1.92c-0.77-0.86-1.15-2.01-1.15-3.43
			c0-1.83,0.73-3.33,2.18-4.51c1.46-1.18,3.57-1.77,6.35-1.77c1.3,0,2.61,0.2,3.95,0.61c1.34,0.41,2.55,1.01,3.63,1.81l0.44-0.64
			c-1.03-0.77-2.26-1.38-3.69-1.85c-1.43-0.46-2.89-0.7-4.37-0.7c-2.06,0-3.8,0.32-5.2,0.95c-1.4,0.64-2.44,1.48-3.1,2.54
			c-0.66,1.06-0.99,2.22-0.99,3.49c0,1.61,0.42,2.91,1.25,3.87c0.83,0.97,1.85,1.68,3.04,2.14c1.19,0.46,2.81,0.95,4.84,1.45
			c1.91,0.45,3.42,0.89,4.55,1.31c1.12,0.42,2.07,1.06,2.84,1.91c0.77,0.85,1.15,1.98,1.15,3.41
			C581.15,289.17,580.41,290.66,578.94,291.81z"/>
		<path fill="#2E3133" d="M488.48,291.81c-1.47,1.15-3.65,1.73-6.53,1.73c-1.88,0-3.65-0.35-5.32-1.05
			c-1.67-0.7-2.95-1.58-3.85-2.64l-0.56,0.52c0.95,1.16,2.32,2.11,4.09,2.84s3.67,1.09,5.68,1.09c2.12,0,3.88-0.31,5.3-0.93
			c1.42-0.62,2.47-1.46,3.16-2.52c0.69-1.06,1.03-2.22,1.03-3.49c0-1.59-0.41-2.85-1.23-3.79c-0.82-0.94-1.83-1.64-3.02-2.1
			c-1.19-0.46-2.79-0.95-4.8-1.45c-1.93-0.48-3.47-0.93-4.61-1.35c-1.14-0.42-2.09-1.06-2.86-1.92c-0.77-0.86-1.15-2.01-1.15-3.43
			c0-1.83,0.73-3.33,2.18-4.51c1.46-1.18,3.57-1.77,6.35-1.77c1.3,0,2.61,0.2,3.95,0.61c1.34,0.41,2.55,1.01,3.63,1.81l0.44-0.64
			c-1.03-0.77-2.26-1.38-3.69-1.85c-1.43-0.46-2.89-0.7-4.37-0.7c-2.06,0-3.8,0.32-5.2,0.95c-1.4,0.64-2.44,1.48-3.1,2.54
			c-0.66,1.06-0.99,2.22-0.99,3.49c0,1.61,0.42,2.91,1.25,3.87c0.83,0.97,1.85,1.68,3.04,2.14c1.19,0.46,2.81,0.95,4.84,1.45
			c1.91,0.45,3.42,0.89,4.55,1.31c1.12,0.42,2.07,1.06,2.84,1.91c0.77,0.85,1.15,1.98,1.15,3.41
			C490.68,289.17,489.95,290.66,488.48,291.81z"/>
		<polygon fill="#2E3133" points="535.74,267.13 535.74,266.38 517.83,266.38 517.83,294.17 536.33,294.17 536.33,293.42 
			518.63,293.42 518.63,280.43 533.95,280.43 533.95,279.68 518.63,279.68 518.63,267.13 		"/>
		<rect x="82.19" y="253.42" fill="#2E3133" width="528.62" height="1.42"/>
		<path fill="#2E3133" d="M58.64,177.03v141.01h573.68V177.03H427.09c-0.28,0.48-0.6,0.94-0.9,1.42H630.9v138.17H60.05V178.44
			h332.86c0.34-0.47,0.66-0.94,0.98-1.42H58.64z"/>
		<path fill="#2E3133" d="M414.1,203.87c-3.59-1.89-7.58-2.84-11.96-2.84h-1.29h-5.56c-3.36,1.14-6.97,2.13-10.82,2.97
			c0.31,0.22,0.55,0.48,0.69,0.82c0.17,0.45,0.25,1.14,0.25,2.07v31.2c0,0.94-0.09,1.63-0.25,2.07c-0.17,0.45-0.49,0.79-0.96,1.02
			c-0.47,0.23-1.21,0.46-2.23,0.67l-3.32,0.7v1.4h1.29h21.36h1.29c4.38,0,8.33-0.95,11.84-2.84c3.51-1.89,6.25-4.5,8.23-7.82
			c1.98-3.32,2.97-7.02,2.97-11.1c0-3.87-1.02-7.42-3.06-10.66C420.51,208.33,417.69,205.77,414.1,203.87z M412.81,232.55
			c-1.21,2.98-2.91,5.28-5.1,6.89c-2.07,1.53-4.48,2.3-7.21,2.39c-3.32-0.17-5-1.38-5-3.67v-35.16h4.45c2.94,0,5.51,0.8,7.72,2.39
			c2.21,1.6,3.92,3.84,5.14,6.73c1.21,2.89,1.82,6.23,1.82,10.02C414.63,226.11,414.02,229.58,412.81,232.55z"/>
		<path fill="#2E3133" d="M434.18,152.9c-0.04,0.47-0.07,0.95-0.12,1.42H654.9v186.3H36.41v-186.3h364.1
			c0.03-0.47,0.07-0.94,0.09-1.42H34.99v189.14h621.33V152.9H434.18z"/>
		<path fill="#2E3133" d="M319.2,240.85c-0.49,0.51-1.56,0.92-3.22,1.21l-3.89,0.7v1.21h17.8v-1.21l-4.02-0.7
			c-1.62-0.3-2.69-0.73-3.22-1.31c-0.53-0.57-0.8-1.52-0.8-2.84v-29.29l32.1,36.37h0.7v-37.45c-0.64,0.03-1.27,0.06-1.91,0.08v26.01
			l-29.29-32.61h-11.29v1.15l3,0.57c1.53,0.3,2.63,0.59,3.29,0.86c0.66,0.28,1.07,0.66,1.24,1.15c0.17,0.49,0.25,1.27,0.25,2.33
			v31.01C319.93,239.42,319.69,240.34,319.2,240.85z"/>
		<path fill="#2E3133" d="M89.5,240.37c-0.19,0.45-0.55,0.79-1.08,1.02c-0.53,0.23-1.39,0.46-2.58,0.67l-3.83,0.7v1.21h21.82v-1.21
			l-3.76-0.7c-1.24-0.21-2.12-0.43-2.65-0.67s-0.89-0.57-1.08-1.02c-0.19-0.45-0.29-1.14-0.29-2.07v-13.46h2.17
			c1.87,0,3.5,0.36,4.88,1.08c1.38,0.72,2.54,1.62,3.48,2.68c0.93,1.06,2.08,2.53,3.45,4.4l1.53,2.11c1.62,2.21,3.03,3.97,4.24,5.26
			c1.21,1.3,2.59,2.36,4.15,3.19c1.55,0.83,3.33,1.24,5.33,1.24c1.23,0,2.42-0.17,3.57-0.51v-1.21c-1.7,0-3.32-0.78-4.85-2.33
			s-3.36-3.86-5.49-6.92c-0.17-0.25-0.33-0.49-0.48-0.7c-0.15-0.21-0.27-0.38-0.35-0.51c-1.4-2.04-2.57-3.64-3.51-4.79
			c-0.94-1.15-2.06-2.12-3.38-2.9c-1.32-0.79-2.81-1.18-4.47-1.18v-0.19c3.36-0.38,6.18-1.54,8.45-3.48
			c2.28-1.94,3.41-4.33,3.41-7.18c0-3.66-1.6-6.55-4.79-8.68c-3.19-2.13-7.7-3.19-13.53-3.19H82v1.21l3.83,0.7
			c1.19,0.21,2.05,0.44,2.58,0.67c0.53,0.23,0.89,0.57,1.08,1.02c0.19,0.45,0.29,1.14,0.29,2.07v31.59
			C89.78,239.23,89.69,239.92,89.5,240.37z M96.04,202.63h3c3.91,0,6.97,0.9,9.16,2.71c2.19,1.81,3.29,4.44,3.29,7.88
			c0,3.02-1.03,5.4-3.09,7.15c-2.06,1.74-4.9,2.62-8.52,2.62h-3.83V202.63z"/>
		<polygon fill="#2E3133" points="128.64,267.13 128.64,266.38 110.74,266.38 110.74,294.17 129.24,294.17 129.24,293.42 
			111.53,293.42 111.53,280.43 126.86,280.43 126.86,279.68 111.53,279.68 111.53,267.13 		"/>
		<polygon fill="#2E3133" points="154.98,266.38 154.3,266.38 154.3,294.17 155.1,294.17 155.1,267.85 175.47,294.17 176.14,294.17 
			176.14,266.38 175.35,266.38 175.35,292.7 		"/>
		<path fill="#2E3133" d="M280.09,240.37c-0.19,0.45-0.55,0.79-1.08,1.02c-0.53,0.23-1.39,0.46-2.58,0.67l-3.83,0.7v1.21h21.82
			v-1.21l-3.76-0.7c-1.24-0.21-2.12-0.43-2.65-0.67s-0.89-0.57-1.08-1.02c-0.19-0.45-0.29-1.14-0.29-2.07v-31.59
			c0-0.93,0.1-1.63,0.29-2.07c0.19-0.45,0.55-0.79,1.08-1.02c0.53-0.23,1.41-0.46,2.65-0.67l3.76-0.7v-1.21h-21.82v1.21l3.83,0.7
			c1.19,0.21,2.05,0.44,2.58,0.67c0.53,0.23,0.89,0.57,1.08,1.02c0.19,0.45,0.29,1.14,0.29,2.07v31.59
			C280.38,239.23,280.28,239.92,280.09,240.37z"/>
		<polygon fill="#2E3133" points="210.85,294.17 210.85,267.13 221.17,267.13 221.17,266.38 199.74,266.38 199.74,267.13 
			210.06,267.13 210.06,294.17 		"/>
		<path fill="#2E3133" d="M212.64,240.85c-0.49,0.51-1.56,0.92-3.22,1.21l-3.89,0.7v1.21h17.8v-1.21l-4.02-0.7
			c-1.62-0.3-2.69-0.73-3.22-1.31c-0.53-0.57-0.8-1.52-0.8-2.84v-29.29l32.1,36.37h0.7V206.9c0-1.32,0.25-2.23,0.73-2.74
			c0.49-0.51,1.56-0.91,3.22-1.21l3.89-0.7v-1.21h-17.8v1.21l4.02,0.7c1.62,0.3,2.69,0.73,3.22,1.31c0.53,0.57,0.8,1.52,0.8,2.84
			v26.54l-29.29-32.61h-11.29v1.15l3,0.57c1.53,0.3,2.63,0.59,3.29,0.86c0.66,0.28,1.07,0.66,1.24,1.15
			c0.17,0.49,0.25,1.27,0.25,2.33v31.01C213.38,239.42,213.13,240.34,212.64,240.85z"/>
		<polygon fill="#2E3133" points="264.34,267.13 264.34,266.38 246.44,266.38 246.44,294.17 264.94,294.17 264.94,293.42 
			247.23,293.42 247.23,280.43 262.56,280.43 262.56,279.68 247.23,279.68 247.23,267.13 		"/>
		<path fill="#2E3133" d="M152.92,241.84c3.47,1.94,7.35,2.9,11.65,2.9c4.38,0,8.32-0.98,11.8-2.94c3.49-1.96,6.21-4.65,8.17-8.07
			c1.96-3.42,2.94-7.24,2.94-11.45c0-4-0.99-7.67-2.97-11.01c-1.98-3.34-4.71-5.99-8.2-7.94c-3.49-1.96-7.4-2.94-11.74-2.94
			c-4.3,0-8.18,0.99-11.65,2.97c-3.47,1.98-6.18,4.69-8.14,8.14c-1.96,3.45-2.93,7.32-2.93,11.61c0,3.96,0.98,7.58,2.93,10.88
			C146.74,237.29,149.45,239.9,152.92,241.84z M150.85,212.42c1.36-3.17,3.23-5.65,5.61-7.43c2.38-1.79,5.08-2.68,8.1-2.68
			c3.06,0,5.81,0.88,8.23,2.65c2.42,1.77,4.32,4.18,5.68,7.24c1.36,3.06,2.04,6.44,2.04,10.15c0,3.91-0.68,7.43-2.04,10.56
			c-1.36,3.13-3.25,5.58-5.68,7.37c-2.42,1.79-5.17,2.68-8.23,2.68c-2.98,0-5.67-0.88-8.07-2.65c-2.4-1.76-4.29-4.17-5.65-7.21
			c-1.36-3.04-2.04-6.37-2.04-9.99C148.8,219.15,149.48,215.59,150.85,212.42z"/>
	</g>
</g>
</svg>
