<?xml version="1.0" encoding="utf-8"?>
<!-- Generator: Adobe Illustrator 24.0.2, SVG Export Plug-In . SVG Version: 6.00 Build 0)  -->
<svg version="1.1" id="Layer_1" xmlns="http://www.w3.org/2000/svg" xmlns:xlink="http://www.w3.org/1999/xlink" x="0px" y="0px"
	 viewBox="0 0 200 200" style="enable-background:new 0 0 200 200;" xml:space="preserve">
<style type="text/css">
	.st0{fill:#2E3133;}
</style>
<path class="st0" d="M28.4,14.5c19.7,1.3,34.1,5.4,42.7,12.2c6.9,5.5,10.3,12.8,10.3,22.3c0,4-0.6,7.6-1.9,10.8l0,0
	c-0.2,0.4-0.3,0.9-0.5,1.3l0,0c-1.7,3.9-4.4,7.3-7.9,10.1C62.5,78,48.1,82.1,28.4,83.5c-0.4,0-0.8,0.4-0.8,0.9
	c0,0.4,0.4,0.8,0.8,0.8c5.5,0,11.6-0.1,17.7-0.5c0.1,0.1,0.2,0.1,0.4,0.1c10.1,0,12.7,5.1,15.9,11.7c5.1,10.2,11.4,22.9,48.1,22.9
	c0.4,0,0.8-0.4,0.8-0.8c0-0.4-0.4-0.8-0.8-0.8c-13.1,0-15.9-5.7-19.3-12.9c-4-8.5-9-18.8-33.7-21.1c7.2-0.9,14.2-2.4,20.3-4.7
	c10.3-4,18.3-9.2,22.1-17.7l0,0c0,0,0,0,0-0.1c1.5-3.4,2.3-7.3,2.3-11.9c0-16.1-10-24.5-24.4-30.1c-14.2-5.5-33.9-6.3-49.4-6.3
	c-0.4,0-0.8,0.3-0.8,0.8C27.6,14.1,27.9,14.5,28.4,14.5z M161.7,107.8c-4.1-6.7-10.2-12.2-18.1-16.2c-13.3-6.9-31.7-10-57.7-10
	c-0.2,0-0.4,0.2-0.4,0.4c0,0.2,0.2,0.4,0.4,0.4c44,0,61.2,30.3,61.2,51.6c0,1.8,0,3.6-0.1,5.4c0,0.4,0,0.9-0.1,1.3l0,0
	c-1,20.6-8.6,45.6-61,45.6c-0.2,0-0.4,0.2-0.4,0.4c0,0.2,0.2,0.4,0.4,0.4c26.2,0,44.5-3.1,57.7-9.7c16.7-8.4,24.8-22.4,24.8-42.8
	C168.4,124.2,166.1,115.1,161.7,107.8z"/>
</svg>
