<?xml version="1.0" encoding="utf-8"?>
<!-- Generator: Adobe Illustrator 24.0.2, SVG Export Plug-In . SVG Version: 6.00 Build 0)  -->
<svg version="1.1" id="Layer_1" xmlns="http://www.w3.org/2000/svg" xmlns:xlink="http://www.w3.org/1999/xlink" x="0px" y="0px"
	 viewBox="0 0 360 360" enable-background="new 0 0 360 360" xml:space="preserve">
<g>
	<radialGradient id="SVGID_1_" cx="122.3033" cy="48.0469" r="275.2469" gradientUnits="userSpaceOnUse">
		<stop  offset="6.211110e-07" style="stop-color:#FEE6D3"/>
		<stop  offset="0.1454" style="stop-color:#F9DCC9"/>
		<stop  offset="0.3685" style="stop-color:#EEC6B2"/>
		<stop  offset="0.6414" style="stop-color:#DFA490"/>
		<stop  offset="0.9512" style="stop-color:#CD7B69"/>
		<stop  offset="0.9654" style="stop-color:#CC7967"/>
	</radialGradient>
	<path fill="url(#SVGID_1_)" d="M313.41,236.6V124.18H192.35c0.22-0.61,0.43-1.23,0.63-1.87h122.3v116.16h-25.44
		c0.05-0.62,0.11-1.24,0.16-1.87H313.41z M145.86,124.18c0.36-0.61,0.69-1.23,1.01-1.87h-97.9v116.16h195.29
		c0.03-0.62,0.06-1.25,0.09-1.87H50.84V124.18H145.86z M81.56,57.26c28.36,1.89,48.97,7.79,61.27,17.54
		c9.92,7.86,14.77,18.31,14.85,31.96c-0.03,5.74-0.92,10.9-2.66,15.55l0,0c-0.24,0.63-0.49,1.26-0.76,1.87h0
		c-2.46,5.61-6.24,10.43-11.43,14.54c-12.3,9.75-32.91,15.65-61.27,17.54c-0.63,0.04-1.12,0.58-1.1,1.22
		c0.02,0.64,0.54,1.14,1.18,1.14c7.93,0,16.6-0.14,25.41-0.66c0.17,0.09,0.35,0.15,0.55,0.15c14.57,0,18.24,7.38,22.9,16.73
		c7.27,14.62,16.32,32.8,69.14,32.8c0.65,0,1.18-0.53,1.18-1.18c0-0.65-0.53-1.18-1.18-1.18c-18.87,0-22.77-8.18-27.71-18.54
		c-5.81-12.17-12.88-26.96-48.38-30.3c10.39-1.33,20.44-3.44,29.08-6.81c14.79-5.75,26.31-13.25,31.7-25.46l0,0
		c0.01-0.03,0.03-0.06,0.04-0.09c2.14-4.87,3.33-10.46,3.33-17.02c0-23.09-14.38-35.15-35.07-43.2
		c-20.45-7.95-48.68-8.97-70.99-8.97c-0.64,0-1.16,0.5-1.18,1.14C80.44,56.68,80.93,57.22,81.56,57.26z M273.09,191.22
		c-5.89-9.62-14.64-17.45-26.02-23.29c-19.17-9.83-45.51-14.41-82.91-14.41c-0.32,0-0.58,0.25-0.59,0.56
		c-0.01,0.32,0.22,0.61,0.54,0.61c63.24,0,87.87,43.52,87.87,74.14c0,2.51-0.03,5.11-0.13,7.76c-0.02,0.62-0.05,1.24-0.08,1.86l0,0
		c-1.45,29.51-12.42,65.45-87.67,65.45c-0.32,0-0.55,0.3-0.54,0.61s0.27,0.56,0.59,0.56c37.62,0,63.97-4.43,82.91-13.94
		c24.01-12.05,35.68-32.13,35.68-61.38C282.75,214.67,279.5,201.7,273.09,191.22z M236.82,268.11H18.26V91.6h128.82
		c-0.3-0.64-0.66-1.25-1-1.87H16.39v180.25h219.33C236.11,269.37,236.46,268.74,236.82,268.11z M192.38,89.73
		c0.22,0.61,0.43,1.23,0.62,1.87h148.74v176.51h-60.07c-0.33,0.63-0.65,1.26-1,1.87h62.94V89.73H192.38z"/>
</g>
</svg>
