<?xml version="1.0" encoding="utf-8"?>
<!-- Generator: Adobe Illustrator 24.0.2, SVG Export Plug-In . SVG Version: 6.00 Build 0)  -->
<svg version="1.1" id="Layer_1" xmlns="http://www.w3.org/2000/svg" xmlns:xlink="http://www.w3.org/1999/xlink" x="0px" y="0px"
	 viewBox="0 0 360 360" enable-background="new 0 0 360 360" xml:space="preserve">
<g>
	<radialGradient id="SVGID_1_" cx="139.8052" cy="88.074" r="191.7526" gradientUnits="userSpaceOnUse">
		<stop  offset="6.211110e-07" style="stop-color:#FEE6D3"/>
		<stop  offset="0.1454" style="stop-color:#F9DCC9"/>
		<stop  offset="0.3685" style="stop-color:#EEC6B2"/>
		<stop  offset="0.6414" style="stop-color:#DFA490"/>
		<stop  offset="0.9512" style="stop-color:#CD7B69"/>
		<stop  offset="0.9654" style="stop-color:#CC7967"/>
	</radialGradient>
	<path fill="url(#SVGID_1_)" d="M272.94,219.43v-78.32H188.6c0.15-0.43,0.3-0.86,0.44-1.3h85.2v80.92h-17.73
		c0.04-0.43,0.08-0.86,0.11-1.3H272.94z M156.22,141.11c0.25-0.42,0.48-0.86,0.7-1.3h-68.2v80.92h136.05
		c0.02-0.43,0.04-0.87,0.06-1.3H90.02v-78.32H156.22z M111.42,94.49c19.76,1.32,34.12,5.43,42.69,12.22
		c6.91,5.48,10.29,12.76,10.34,22.26c-0.02,4-0.64,7.59-1.85,10.84l0,0c-0.16,0.44-0.34,0.87-0.53,1.3h0
		c-1.71,3.91-4.35,7.27-7.96,10.13c-8.57,6.79-22.93,10.9-42.69,12.22c-0.44,0.03-0.78,0.4-0.77,0.85c0.01,0.44,0.38,0.79,0.82,0.79
		c5.52,0,11.57-0.1,17.7-0.46c0.12,0.06,0.24,0.11,0.38,0.11c10.15,0,12.71,5.14,15.95,11.66c5.07,10.18,11.37,22.85,48.17,22.85
		c0.45,0,0.82-0.37,0.82-0.82c0-0.45-0.37-0.82-0.82-0.82c-13.14,0-15.86-5.7-19.31-12.92c-4.05-8.48-8.98-18.78-33.71-21.11
		c7.24-0.93,14.24-2.4,20.26-4.74c10.3-4.01,18.33-9.23,22.09-17.74l0,0c0.01-0.02,0.02-0.04,0.03-0.06
		c1.49-3.39,2.32-7.29,2.32-11.86c0-16.09-10.02-24.49-24.43-30.09c-14.25-5.54-33.91-6.25-49.45-6.25c-0.44,0-0.81,0.35-0.82,0.79
		C110.64,94.09,110.98,94.46,111.42,94.49z M244.85,187.82c-4.1-6.7-10.2-12.16-18.13-16.22c-13.35-6.85-31.71-10.04-57.76-10.04
		c-0.22,0-0.4,0.17-0.41,0.39c-0.01,0.22,0.16,0.43,0.38,0.43c44.06,0,61.22,30.32,61.22,51.65c0,1.75-0.02,3.56-0.09,5.41
		c-0.02,0.43-0.03,0.86-0.06,1.29l0,0c-1.01,20.56-8.65,45.6-61.07,45.6c-0.22,0-0.39,0.21-0.38,0.43c0.01,0.22,0.19,0.39,0.41,0.39
		c26.21,0,44.56-3.08,57.76-9.71c16.73-8.4,24.86-22.38,24.86-42.76C251.58,204.15,249.32,195.12,244.85,187.82z M219.58,241.39
		H67.32V118.42h89.74c-0.21-0.45-0.46-0.87-0.7-1.3H66.02v125.57h152.8C219.09,242.26,219.34,241.82,219.58,241.39z M188.63,117.11
		c0.15,0.43,0.3,0.86,0.43,1.3h103.62v122.97h-41.85c-0.23,0.44-0.45,0.87-0.7,1.3h43.85V117.11H188.63z"/>
</g>
</svg>
