<svg id="Layer_1" data-name="Layer 1" xmlns="http://www.w3.org/2000/svg" xmlns:xlink="http://www.w3.org/1999/xlink" viewBox="0 0 360 360"><defs><style>.cls-1{fill:#171818;}.cls-2{fill:url(#radial-gradient);}</style><radialGradient id="radial-gradient" cx="128.31" cy="61.79" r="246.59" gradientUnits="userSpaceOnUse"><stop offset="0" stop-color="#fee6d3"/><stop offset="0.15" stop-color="#fadecb"/><stop offset="0.38" stop-color="#f1c9b6"/><stop offset="0.66" stop-color="#e1a693"/><stop offset="0.97" stop-color="#cc7967"/></radialGradient></defs><title>ronindean-logo-outline-black-black</title><rect class="cls-1" x="-63.39" y="-540.64" width="1046.76" height="984.39"/><path class="cls-2" d="M299.52,230.7V130H191.06c.2-.55.39-1.1.56-1.67H301.19V232.38H278.4c0-.56.1-1.11.14-1.68ZM149.42,130c.32-.54.62-1.1.9-1.67H62.61V232.38h175c0-.56,0-1.12.07-1.68H64.29V130ZM91.81,70c25.41,1.69,43.88,7,54.89,15.71,8.89,7,13.24,16.41,13.3,28.63a39.91,39.91,0,0,1-2.38,13.94h0c-.21.56-.44,1.12-.68,1.67h0a33.64,33.64,0,0,1-10.24,13c-11,8.74-29.48,14-54.89,15.72a1.06,1.06,0,0,0,.07,2.11c7.1,0,14.88-.13,22.77-.59a1,1,0,0,0,.49.13c13,0,16.34,6.62,20.51,15,6.52,13.09,14.63,29.38,61.94,29.38a1.06,1.06,0,1,0,0-2.11c-16.9,0-20.4-7.33-24.82-16.61-5.21-10.9-11.54-24.15-43.35-27.14a112.52,112.52,0,0,0,26.06-6.1c13.24-5.15,23.57-11.87,28.4-22.81h0a.3.3,0,0,1,0-.08,37.44,37.44,0,0,0,3-15.24C186.9,94,174,83.18,155.48,76c-18.32-7.13-43.61-8-63.6-8A1.06,1.06,0,0,0,91.81,70Zm171.59,120c-5.28-8.61-13.12-15.63-23.31-20.86-17.17-8.8-40.78-12.91-74.28-12.91a.53.53,0,0,0-.53.51.52.52,0,0,0,.48.55c56.66,0,78.73,39,78.73,66.42,0,2.24,0,4.57-.12,7,0,.55,0,1.1-.07,1.66h0C243,258.81,233.17,291,165.76,291a.51.51,0,0,0-.48.55.52.52,0,0,0,.53.5c33.7,0,57.31-4,74.27-12.48,21.51-10.8,32-28.79,32-55C272.05,211.06,269.14,199.44,263.4,190.05Zm-32.5,68.89H35.1V100.8H150.51c-.28-.57-.59-1.12-.91-1.67H33.43V260.61H229.92C230.27,260.06,230.58,259.5,230.9,258.94ZM191.09,99.13c.2.55.38,1.1.56,1.67H324.9V258.94H271.08c-.29.56-.58,1.12-.9,1.67h56.39V99.13Z"/></svg>