<?xml version="1.0" encoding="utf-8"?>
<!-- Generator: Adobe Illustrator 24.0.2, SVG Export Plug-In . SVG Version: 6.00 Build 0)  -->
<svg version="1.1" id="Layer_1" xmlns="http://www.w3.org/2000/svg" xmlns:xlink="http://www.w3.org/1999/xlink" x="0px" y="0px"
	 viewBox="0 0 360 360" enable-background="new 0 0 360 360" xml:space="preserve">
<g>
	
		<radialGradient id="SVGID_1_" cx="153.0688" cy="88.074" r="164.6168" gradientTransform="matrix(0.9993 0 0 1 -0.8172 0)" gradientUnits="userSpaceOnUse">
		<stop  offset="6.211110e-07" style="stop-color:#FEE6D3"/>
		<stop  offset="0.1454" style="stop-color:#F9DCC9"/>
		<stop  offset="0.3685" style="stop-color:#EEC6B2"/>
		<stop  offset="0.6414" style="stop-color:#DFA490"/>
		<stop  offset="0.9512" style="stop-color:#CD7B69"/>
		<stop  offset="0.9654" style="stop-color:#CC7967"/>
	</radialGradient>
	<path fill="url(#SVGID_1_)" d="M107.33,94.49c19.74,1.32,34.09,5.43,42.65,12.22c6.9,5.48,10.28,12.76,10.34,22.26
		c-0.02,4-0.64,7.59-1.85,10.84l0,0c-0.16,0.44-0.34,0.87-0.53,1.3h0c-1.71,3.91-4.35,7.27-7.95,10.13
		c-8.56,6.79-22.91,10.9-42.65,12.22c-0.44,0.03-0.78,0.4-0.77,0.85c0.01,0.44,0.38,0.79,0.82,0.79c5.52,0,11.56-0.1,17.69-0.46
		c0.12,0.06,0.24,0.11,0.38,0.11c10.14,0,12.7,5.14,15.94,11.66c5.06,10.18,11.36,22.85,48.13,22.85c0.45,0,0.82-0.37,0.82-0.82
		c0-0.45-0.37-0.82-0.82-0.82c-13.13,0-15.85-5.7-19.29-12.92c-4.04-8.48-8.97-18.78-33.68-21.11c7.24-0.93,14.23-2.4,20.25-4.74
		c10.29-4.01,18.31-9.23,22.07-17.74l0,0c0.01-0.02,0.02-0.04,0.03-0.06c1.49-3.39,2.32-7.29,2.32-11.86
		c0-16.09-10.01-24.49-24.42-30.09c-14.23-5.54-33.89-6.25-49.42-6.25c-0.44,0-0.81,0.35-0.82,0.79
		C106.54,94.09,106.88,94.46,107.33,94.49z M240.66,187.82c-4.1-6.7-10.19-12.16-18.11-16.22c-13.34-6.85-31.68-10.04-57.72-10.04
		c-0.22,0-0.4,0.17-0.41,0.39c-0.01,0.22,0.16,0.43,0.38,0.43c44.02,0,61.17,30.32,61.17,51.65c0,1.75-0.02,3.56-0.09,5.41
		c-0.02,0.43-0.03,0.86-0.06,1.29l0,0c-1.01,20.56-8.65,45.6-61.03,45.6c-0.22,0-0.39,0.21-0.38,0.43c0.01,0.22,0.19,0.39,0.41,0.39
		c26.19,0,44.53-3.08,57.72-9.71c16.71-8.4,24.84-22.38,24.84-42.76C247.38,204.15,245.12,195.12,240.66,187.82z"/>
</g>
</svg>
